# File units = meters
mtllib basketball_court.mtl
g Part 1
v 7.5 7.5 -0.5 
v 0 7.5 -0.5 
v 0 7.5 5 
v -7.5 7.5 5 
v -7.5 7.5 -0.5 
v 7.5 7.5 5 
v 7.5 -7.5 -0.5 
v 7.5 0 -0.5 
v 7.5 0 5 
v 7.5 -7.5 5 
v -7.5 -7.5 -0.5 
v 0 -7.5 -0.5 
v 0 -7.5 5 
v -7.5 -7.5 5 
v -7.5 0 -0.5 
v -7.5 0 5 
v -7 0 5 
v -7 7 5 
v -7 -7 5 
v 7 -7 5 
v 0 -7 5 
v 7 7 5 
v 7 0 5 
v 0 7 5 
v -7 0 0 
v -7 -7 0 
v -7 7 0 
v 0 -7 0 
v 7 -7 0 
v 7 0 0 
v 7 7 0 
v 0 7 0 
vn 5.92119e-17 1 0 
vn 1 1.77636e-16 0 
vn 1.77636e-16 -1 0 
vn -1 -1.77636e-16 0 
vn 0 0 -1 
vn 0 0 1 
vn 1 0 0 
vn 0 1 0 
vn -1 0 0 
vn 0 -1 0 
vn 0 0 1 
usemtl 0.858824_0.858824_0.858824_0.000000_0.901961
o mesh0
f 1//1 2//1 3//1 
f 4//1 3//1 2//1 
f 2//1 5//1 4//1 
f 3//1 6//1 1//1 
o mesh1
f 7//2 8//2 9//2 
f 6//2 9//2 8//2 
f 8//2 1//2 6//2 
f 9//2 10//2 7//2 
o mesh2
f 11//3 12//3 13//3 
f 10//3 13//3 12//3 
f 12//3 7//3 10//3 
f 13//3 14//3 11//3 
o mesh3
f 5//4 15//4 16//4 
f 14//4 16//4 15//4 
f 15//4 11//4 14//4 
f 16//4 4//4 5//4 
o mesh4
f 12//5 2//5 8//5 
f 2//5 12//5 15//5 
f 2//5 1//5 8//5 
f 12//5 11//5 15//5 
f 15//5 5//5 2//5 
f 8//5 7//5 12//5 
o mesh5
f 16//6 17//6 18//6 
f 16//6 14//6 19//6 
f 13//6 10//6 20//6 
f 13//6 21//6 19//6 
f 19//6 17//6 16//6 
f 19//6 14//6 13//6 
f 9//6 6//6 22//6 
f 9//6 23//6 20//6 
f 3//6 24//6 22//6 
f 3//6 4//6 18//6 
f 20//6 21//6 13//6 
f 20//6 10//6 9//6 
f 18//6 24//6 3//6 
f 22//6 23//6 9//6 
f 18//6 4//6 16//6 
f 22//6 6//6 3//6 
o mesh6
f 18//7 17//7 25//7 
f 26//7 25//7 17//7 
f 17//7 19//7 26//7 
f 25//7 27//7 18//7 
o mesh7
f 19//8 21//8 28//8 
f 29//8 28//8 21//8 
f 21//8 20//8 29//8 
f 28//8 26//8 19//8 
o mesh8
f 20//9 23//9 30//9 
f 31//9 30//9 23//9 
f 23//9 22//9 31//9 
f 30//9 29//9 20//9 
o mesh9
f 22//10 24//10 32//10 
f 27//10 32//10 24//10 
f 24//10 18//10 27//10 
f 32//10 31//10 22//10 
o mesh10
f 30//11 25//11 28//11 
f 25//11 30//11 32//11 
f 25//11 26//11 28//11 
f 30//11 31//11 32//11 
f 32//11 27//11 25//11 
f 28//11 29//11 30//11 
