# Blender 3.5.1
# www.blender.org
mtllib sky.mtl
o mesh0
v -0.221711 -0.181777 0.300000
v -0.221711 -0.181777 0.000000
v 0.221711 -0.181777 0.000000
v 0.221711 -0.181777 0.300000
vn -0.0000 -1.0000 -0.0000
vt 0.676527 0.999918
vt 0.000082 0.999918
vt 0.000082 0.000082
vt 0.676527 0.000082
s 0
usemtl 0.615686_0.811765_0.929412_0.000000_0.000000
f 1/1/1 2/2/1 3/3/1
f 3/3/1 4/4/1 1/1/1
o mesh1
v 0.221711 -0.181777 0.000000
v 0.221711 -0.181777 0.300000
v 0.221711 0.181777 -0.000000
v 0.221711 0.181777 0.300000
vn 1.0000 -0.0000 -0.0000
vt 0.000000 0.000000
vt 0.000000 0.000000
vt 0.000000 0.000000
vt 0.000000 0.000000
s 0
usemtl 0.615686_0.811765_0.929412_0.000000_0.000000
f 6/6/2 5/5/2 7/7/2
f 7/7/2 8/8/2 6/6/2
o mesh2
v 0.221711 0.181777 -0.000000
v 0.221711 0.181777 0.300000
v -0.221711 0.181777 -0.000000
v -0.221711 0.181777 0.300000
vn -0.0000 1.0000 -0.0000
vt 0.000000 0.000000
vt 0.000000 0.000000
vt 0.000000 0.000000
vt 0.000000 0.000000
s 0
usemtl 0.615686_0.811765_0.929412_0.000000_0.000000
f 10/10/3 9/9/3 11/11/3
f 11/11/3 12/12/3 10/10/3
o mesh3
v -0.221711 -0.181777 0.300000
v -0.221711 -0.181777 0.000000
v -0.221711 0.181777 -0.000000
v -0.221711 0.181777 0.300000
vn -1.0000 -0.0000 -0.0000
vt 0.000000 0.000000
vt 0.000000 0.000000
vt 0.000000 0.000000
vt 0.000000 0.000000
s 0
usemtl 0.615686_0.811765_0.929412_0.000000_0.000000
f 16/16/4 15/15/4 14/14/4
f 14/14/4 13/13/4 16/16/4
o mesh4
v -0.221711 -0.181777 0.300000
v 0.221711 -0.181777 0.300000
v 0.221711 0.181777 0.300000
v -0.221711 0.181777 0.300000
v -0.216711 0.176777 0.300000
v -0.216711 -0.176777 0.300000
v 0.216711 -0.176777 0.300000
v 0.216711 0.176777 0.300000
vn -0.0000 -0.0000 1.0000
vt 0.000000 0.000000
vt 0.000000 0.000000
vt 0.000000 0.000000
vt 0.000000 0.000000
vt 0.000000 0.000000
vt 0.000000 0.000000
vt 0.000000 0.000000
vt 0.000000 0.000000
s 0
usemtl 0.615686_0.811765_0.929412_0.000000_0.000000
f 19/19/5 20/20/5 21/21/5
f 20/20/5 17/17/5 22/22/5
f 22/22/5 21/21/5 20/20/5
f 17/17/5 18/18/5 23/23/5
f 23/23/5 22/22/5 17/17/5
f 18/18/5 19/19/5 24/24/5
f 24/24/5 23/23/5 18/18/5
f 21/21/5 24/24/5 19/19/5
o mesh5
v -0.221711 -0.181777 0.000000
v 0.221711 -0.181777 0.000000
v 0.221711 0.181777 -0.000000
v -0.221711 0.181777 -0.000000
v 0.216711 0.176777 -0.000000
v 0.216711 -0.176777 0.000000
v -0.216711 -0.176777 0.000000
v -0.216711 0.176777 -0.000000
vn -0.0000 -0.0000 -1.0000
vt 0.000000 0.000000
vt 0.000000 0.000000
vt 0.000000 0.000000
vt 0.000000 0.000000
vt 0.000000 0.000000
vt 0.000000 0.000000
vt 0.000000 0.000000
vt 0.000000 0.000000
s 0
usemtl 0.615686_0.811765_0.929412_0.000000_0.000000
f 28/28/6 27/27/6 29/29/6
f 27/27/6 26/26/6 30/30/6
f 30/30/6 29/29/6 27/27/6
f 26/26/6 25/25/6 31/31/6
f 31/31/6 30/30/6 26/26/6
f 25/25/6 28/28/6 32/32/6
f 32/32/6 31/31/6 25/25/6
f 29/29/6 32/32/6 28/28/6
o mesh6
v -0.216711 0.176777 0.300000
v 0.216711 0.176777 0.300000
v 0.216711 0.176777 -0.000000
v -0.216711 0.176777 -0.000000
vn -0.0000 -1.0000 -0.0000
vt 0.480154 1.002003
vt 0.998989 1.002003
vt 0.998989 -0.002809
vt 0.480154 -0.002809
s 0
usemtl Material
f 33/33/7 36/36/7 35/35/7
f 35/35/7 34/34/7 33/33/7
o mesh7
v 0.216711 -0.176777 0.300000
v 0.216711 0.176777 0.300000
v 0.216711 0.176777 -0.000000
v 0.216711 -0.176777 0.000000
vn -1.0000 -0.0000 -0.0000
vt 0.512180 -0.003566
vt 1.000770 -0.003566
vt 1.000770 0.998446
vt 0.512180 0.998446
s 0
usemtl Material.002
f 38/38/8 39/39/8 40/40/8
f 40/40/8 37/37/8 38/38/8
o mesh8
v -0.216711 -0.176777 0.300000
v 0.216711 -0.176777 0.300000
v 0.216711 -0.176777 0.000000
v -0.216711 -0.176777 0.000000
vn -0.0000 1.0000 -0.0000
vt 0.001206 0.005286
vt 0.474265 0.005286
vt 0.474265 0.999834
vt 0.001206 0.999834
s 0
usemtl 0.615686_0.811765_0.929412_0.000000_0.000000
f 42/42/9 43/43/9 44/44/9
f 44/44/9 41/41/9 42/42/9
o mesh9
v -0.216711 0.176777 0.300000
v -0.216711 -0.176777 0.300000
v -0.216711 -0.176777 0.000000
v -0.216711 0.176777 -0.000000
vn 1.0000 -0.0000 -0.0000
vt 0.510099 0.998543
vt 0.003287 0.998543
vt 0.003287 0.001054
vt 0.503272 0.001054
s 0
usemtl Material
f 46/46/10 47/47/10 48/48/10
f 48/48/10 45/45/10 46/46/10
