# File units = meters
mtllib square.mtl
g Part 1
v -0.025 -0.025 0.01 
v -0.025 -0.025 0 
v 0.025 -0.025 0 
v 0.025 -0.025 0.01 
v 0.025 0.025 0 
v 0.025 0.025 0.01 
v -0.025 0.025 0 
v -0.025 0.025 0.01 
v 0.015 0.015 0.01 
v -0.015 0.015 0.01 
v -0.015 -0.015 0.01 
v 0.015 -0.015 0.01 
v 0.015 -0.015 0 
v -0.015 -0.015 0 
v -0.015 0.015 0 
v 0.015 0.015 0 
vn 1.38778e-16 -1 0 
vn 1 0 0 
vn -1.38778e-16 1 0 
vn -1 0 0 
vn 0 0 1 
vn 0 0 -1 
vn -1 5.78241e-17 0 
vn -1.15648e-16 1 0 
vn 1 -5.78241e-17 0 
vn 1.15648e-16 -1 0 
usemtl 0.615686_0.811765_0.929412_0.000000_0.000000
o mesh0
f 1//1 2//1 3//1 
f 3//1 4//1 1//1 
o mesh1
f 4//2 3//2 5//2 
f 5//2 6//2 4//2 
o mesh2
f 6//3 5//3 7//3 
f 7//3 8//3 6//3 
o mesh3
f 8//4 7//4 2//4 
f 2//4 1//4 8//4 
o mesh4
f 4//5 6//5 9//5 
f 6//5 8//5 10//5 
f 10//5 9//5 6//5 
f 8//5 1//5 11//5 
f 11//5 10//5 8//5 
f 1//5 4//5 12//5 
f 12//5 11//5 1//5 
f 9//5 12//5 4//5 
o mesh5
f 5//6 3//6 13//6 
f 3//6 2//6 14//6 
f 14//6 13//6 3//6 
f 2//6 7//6 15//6 
f 7//6 5//6 16//6 
f 15//6 14//6 2//6 
f 13//6 16//6 5//6 
f 16//6 15//6 7//6 
o mesh6
f 9//7 16//7 13//7 
f 13//7 12//7 9//7 
o mesh7
f 12//8 13//8 14//8 
f 14//8 11//8 12//8 
o mesh8
f 11//9 14//9 15//9 
f 15//9 10//9 11//9 
o mesh9
f 10//10 15//10 16//10 
f 16//10 9//10 10//10 
