# File units = meters
mtllib square3.mtl
g Part 1
v -0.015 -0.015 0.01 
v -0.015 -0.025 0.01 
v 0.015 -0.025 0.01 
v 0.015 -0.015 0.01 
v 0.015 -0.015 0 
v -0.015 -0.015 0 
v -0.025 -0.025 0.02 
v -0.025 -0.025 0 
v 0.025 -0.025 0 
v 0.025 -0.025 0.02 
v 0.015 -0.025 0.02 
v -0.015 -0.025 0.02 
v 0.025 0.025 0 
v 0.025 0.025 0.02 
v -0.025 0.025 0.02 
v -0.025 0.025 0 
v -0.015 0.025 0.02 
v 0.015 0.025 0.02 
v 0.015 0.025 0.01 
v -0.015 0.025 0.01 
v 0.015 0.015 0.01 
v 0.015 0.015 0 
v -0.015 0.015 0 
v -0.015 0.015 0.01 
vn 0 0 1 
vn -1.15648e-16 1 0 
vn 1.38778e-16 -1 0 
vn 1 0 0 
vn -1 0 0 
vn 0 0 1 
vn -1.38778e-16 1 0 
vn -1 5.78241e-17 0 
vn 1 -5.78241e-17 0 
vn 0 0 -1 
vn 0 0 1 
vn 1.15648e-16 -1 0 
usemtl 0.615686_0.811765_0.929412_0.000000_0.000000
o mesh0
f 1//1 2//1 3//1 
f 3//1 4//1 1//1 
o mesh1
f 4//2 5//2 6//2 
f 6//2 1//2 4//2 
o mesh2
f 7//3 8//3 2//3 
f 8//3 9//3 3//3 
f 3//3 2//3 8//3 
f 10//3 11//3 3//3 
f 3//3 9//3 10//3 
f 2//3 12//3 7//3 
o mesh3
f 10//4 9//4 13//4 
f 13//4 14//4 10//4 
o mesh4
f 15//5 16//5 8//5 
f 8//5 7//5 15//5 
o mesh5
f 7//6 12//6 17//6 
f 17//6 15//6 7//6 
o mesh6
f 14//6 18//6 11//6 
f 11//6 10//6 14//6 
o mesh7
f 14//7 13//7 19//7 
f 13//7 16//7 20//7 
f 20//7 19//7 13//7 
f 15//7 17//7 20//7 
f 20//7 16//7 15//7 
f 19//7 18//7 14//7 
o mesh8
f 5//8 4//8 21//8 
f 18//8 19//8 21//8 
f 11//8 18//8 4//8 
f 21//8 4//8 18//8 
f 21//8 22//8 5//8 
f 4//8 3//8 11//8 
o mesh9
f 23//9 24//9 1//9 
f 12//9 2//9 1//9 
f 17//9 12//9 24//9 
f 1//9 24//9 12//9 
f 1//9 6//9 23//9 
f 24//9 20//9 17//9 
o mesh10
f 13//10 9//10 5//10 
f 9//10 8//10 6//10 
f 6//10 5//10 9//10 
f 8//10 16//10 23//10 
f 16//10 13//10 22//10 
f 23//10 6//10 8//10 
f 5//10 22//10 13//10 
f 22//10 23//10 16//10 
o mesh11
f 20//11 24//11 21//11 
f 21//11 19//11 20//11 
o mesh12
f 24//12 23//12 22//12 
f 22//12 21//12 24//12 
