# File units = meters
mtllib bb.mtl
g Part 1
v 0.0599968 0.00652505 0.025 
v 0.0589396 0.0129736 0.025 
v 0.0571915 0.01927 0.025 
v 0.0547727 0.0253406 0.025 
v 0.0517119 0.031114 0.025 
v 0.0480447 0.0365226 0.025 
v 0.0438143 0.0415031 0.025 
v 0.0390702 0.0459969 0.025 
v 0.033868 0.0499515 0.025 
v 0.0282687 0.0533205 0.025 
v 0.0223381 0.0560643 0.025 
v 0.0161455 0.0581508 0.025 
v 0.00976364 0.0595556 0.025 
v 0.00326732 0.0602621 0.025 
v -0.00326732 0.0602621 0.025 
v -0.00976364 0.0595556 0.025 
v -0.0161455 0.0581508 0.025 
v -0.0223381 0.0560643 0.025 
v -0.0282687 0.0533205 0.025 
v -0.033868 0.0499515 0.025 
v -0.0390702 0.0459969 0.025 
v -0.0438143 0.0415031 0.025 
v -0.0480447 0.0365226 0.025 
v -0.0517119 0.031114 0.025 
v -0.0547727 0.0253406 0.025 
v -0.0571915 0.01927 0.025 
v -0.0589396 0.0129736 0.025 
v -0.0599968 0.00652505 0.025 
v -0.0603506 3.69541e-18 0.025 
v -0.0599968 -0.00652505 0.025 
v -0.0589396 -0.0129736 0.025 
v -0.0571915 -0.01927 0.025 
v -0.0547727 -0.0253406 0.025 
v -0.0517119 -0.031114 0.025 
v -0.0480447 -0.0365226 0.025 
v -0.0438143 -0.0415031 0.025 
v -0.0390702 -0.0459969 0.025 
v -0.033868 -0.0499515 0.025 
v -0.0282687 -0.0533205 0.025 
v -0.0223381 -0.0560643 0.025 
v -0.0161455 -0.0581508 0.025 
v -0.00976364 -0.0595556 0.025 
v -0.00326732 -0.0602621 0.025 
v 0.00326732 -0.0602621 0.025 
v 0.00976364 -0.0595556 0.025 
v 0.0161455 -0.0581508 0.025 
v 0.0223381 -0.0560643 0.025 
v 0.0282687 -0.0533205 0.025 
v 0.033868 -0.0499515 0.025 
v 0.0390702 -0.0459969 0.025 
v 0.0438143 -0.0415031 0.025 
v 0.0480447 -0.0365226 0.025 
v 0.0517119 -0.031114 0.025 
v 0.0547727 -0.0253406 0.025 
v 0.0571915 -0.01927 0.025 
v 0.0589396 -0.0129736 0.025 
v 0.0599968 -0.00652505 0.025 
v 0.0603506 2.58679e-17 0.025 
v 0 3.69541e-18 0.025 
v -0.0603506 3.69541e-18 0 
v -0.0599968 0.00652505 0 
v -0.0589396 0.0129736 0 
v -0.0571915 0.01927 0 
v -0.0547727 0.0253406 0 
v -0.0517119 0.031114 0 
v -0.0480447 0.0365226 0 
v -0.0438143 0.0415031 0 
v -0.0390702 0.0459969 0 
v -0.033868 0.0499515 0 
v -0.0282687 0.0533205 0 
v -0.0223381 0.0560643 0 
v -0.0161455 0.0581508 0 
v -0.00976364 0.0595556 0 
v -0.00326732 0.0602621 0 
v 0.00326732 0.0602621 0 
v 0.00976364 0.0595556 0 
v 0.0161455 0.0581508 0 
v 0.0223381 0.0560643 0 
v 0.0282687 0.0533205 0 
v 0.033868 0.0499515 0 
v 0.0390702 0.0459969 0 
v 0.0438143 0.0415031 0 
v 0.0480447 0.0365226 0 
v 0.0517119 0.031114 0 
v 0.0547727 0.0253406 0 
v 0.0571915 0.01927 0 
v 0.0589396 0.0129736 0 
v 0.0599968 0.00652505 0 
v 0.0603506 1.10862e-17 0 
v 0.0599968 -0.00652505 0 
v 0.0589396 -0.0129736 0 
v 0.0571915 -0.01927 0 
v 0.0547727 -0.0253406 0 
v 0.0517119 -0.031114 0 
v 0.0480447 -0.0365226 0 
v 0.0438143 -0.0415031 0 
v 0.0390702 -0.0459969 0 
v 0.033868 -0.0499515 0 
v 0.0282687 -0.0533205 0 
v 0.0223381 -0.0560643 0 
v 0.0161455 -0.0581508 0 
v 0.00976364 -0.0595556 0 
v 0.00326732 -0.0602621 0 
v -0.00326732 -0.0602621 0 
v -0.00976364 -0.0595556 0 
v -0.0161455 -0.0581508 0 
v -0.0223381 -0.0560643 0 
v -0.0282687 -0.0533205 0 
v -0.033868 -0.0499515 0 
v -0.0390702 -0.0459969 0 
v -0.0438143 -0.0415031 0 
v -0.0480447 -0.0365226 0 
v -0.0517119 -0.031114 0 
v -0.0547727 -0.0253406 0 
v -0.0571915 -0.01927 0 
v -0.0589396 -0.0129736 0 
v -0.0599968 -0.00652505 0 
v 0 3.69541e-18 0 
vn 0 0 1 
vn -1 0 0 
vn -0.994138 0.108119 0 
vn -0.976621 0.21497 0 
vn -0.947653 0.319302 0 
vn -0.907575 0.419889 0 
vn -0.856857 0.515554 0 
vn -0.796093 0.605174 0 
vn -0.725995 0.687699 0 
vn -0.647386 0.762162 0 
vn -0.561187 0.827689 0 
vn -0.468408 0.883512 0 
vn -0.370138 0.928977 0 
vn -0.267528 0.96355 0 
vn -0.161782 0.986827 0 
vn -0.0541389 0.998533 0 
vn 0.0541389 0.998533 0 
vn 0.161782 0.986827 0 
vn 0.267528 0.96355 0 
vn 0.370138 0.928977 0 
vn 0.468408 0.883512 0 
vn 0.561187 0.827689 0 
vn 0.647386 0.762162 0 
vn 0.725995 0.687699 0 
vn 0.796093 0.605174 0 
vn 0.856857 0.515554 0 
vn 0.907575 0.419889 0 
vn 0.947653 0.319302 0 
vn 0.976621 0.21497 0 
vn 0.994138 0.108119 0 
vn 1 1.22465e-16 0 
vn 0.994138 -0.108119 0 
vn 0.976621 -0.21497 0 
vn 0.947653 -0.319302 0 
vn 0.907575 -0.419889 0 
vn 0.856857 -0.515554 0 
vn 0.796093 -0.605174 0 
vn 0.725995 -0.687699 0 
vn 0.647386 -0.762162 0 
vn 0.561187 -0.827689 0 
vn 0.468408 -0.883512 0 
vn 0.370138 -0.928977 0 
vn 0.267528 -0.96355 0 
vn 0.161782 -0.986827 0 
vn 0.0541389 -0.998533 0 
vn -0.0541389 -0.998533 0 
vn -0.161782 -0.986827 0 
vn -0.267528 -0.96355 0 
vn -0.370138 -0.928977 0 
vn -0.468408 -0.883512 0 
vn -0.561187 -0.827689 0 
vn -0.647386 -0.762162 0 
vn -0.725995 -0.687699 0 
vn -0.796093 -0.605174 0 
vn -0.856857 -0.515554 0 
vn -0.907575 -0.419889 0 
vn -0.947653 -0.319302 0 
vn -0.976621 -0.21497 0 
vn -0.994138 -0.108119 0 
vn 0 0 -1 
usemtl 0.615686_0.811765_0.929412_0.000000_0.000000
o mesh0
f 59//1 1//1 2//1 
f 2//1 3//1 59//1 
f 3//1 4//1 59//1 
f 4//1 5//1 59//1 
f 5//1 6//1 59//1 
f 6//1 7//1 59//1 
f 7//1 8//1 59//1 
f 8//1 9//1 59//1 
f 9//1 10//1 59//1 
f 10//1 11//1 59//1 
f 11//1 12//1 59//1 
f 12//1 13//1 59//1 
f 13//1 14//1 59//1 
f 14//1 15//1 59//1 
f 15//1 16//1 59//1 
f 16//1 17//1 59//1 
f 17//1 18//1 59//1 
f 18//1 19//1 59//1 
f 19//1 20//1 59//1 
f 20//1 21//1 59//1 
f 21//1 22//1 59//1 
f 22//1 23//1 59//1 
f 23//1 24//1 59//1 
f 24//1 25//1 59//1 
f 25//1 26//1 59//1 
f 26//1 27//1 59//1 
f 27//1 28//1 59//1 
f 28//1 29//1 59//1 
f 29//1 30//1 59//1 
f 30//1 31//1 59//1 
f 31//1 32//1 59//1 
f 32//1 33//1 59//1 
f 33//1 34//1 59//1 
f 34//1 35//1 59//1 
f 35//1 36//1 59//1 
f 36//1 37//1 59//1 
f 37//1 38//1 59//1 
f 38//1 39//1 59//1 
f 39//1 40//1 59//1 
f 40//1 41//1 59//1 
f 41//1 42//1 59//1 
f 42//1 43//1 59//1 
f 43//1 44//1 59//1 
f 44//1 45//1 59//1 
f 45//1 46//1 59//1 
f 46//1 47//1 59//1 
f 47//1 48//1 59//1 
f 48//1 49//1 59//1 
f 49//1 50//1 59//1 
f 50//1 51//1 59//1 
f 51//1 52//1 59//1 
f 52//1 53//1 59//1 
f 53//1 54//1 59//1 
f 54//1 55//1 59//1 
f 55//1 56//1 59//1 
f 56//1 57//1 59//1 
f 57//1 58//1 59//1 
f 58//1 1//1 59//1 
o mesh1
f 60//2 29//2 28//3 
f 61//3 28//3 27//4 
f 62//4 27//4 26//5 
f 63//5 26//5 25//6 
f 64//6 25//6 24//7 
f 65//7 24//7 23//8 
f 66//8 23//8 22//9 
f 67//9 22//9 21//10 
f 68//10 21//10 20//11 
f 69//11 20//11 19//12 
f 70//12 19//12 18//13 
f 71//13 18//13 17//14 
f 72//14 17//14 16//15 
f 73//15 16//15 15//16 
f 74//16 15//16 14//17 
f 75//17 14//17 13//18 
f 76//18 13//18 12//19 
f 77//19 12//19 11//20 
f 78//20 11//20 10//21 
f 79//21 10//21 9//22 
f 80//22 9//22 8//23 
f 81//23 8//23 7//24 
f 82//24 7//24 6//25 
f 83//25 6//25 5//26 
f 84//26 5//26 4//27 
f 85//27 4//27 3//28 
f 86//28 3//28 2//29 
f 87//29 2//29 1//30 
f 88//30 1//30 58//31 
f 89//31 58//31 57//32 
f 90//32 57//32 56//33 
f 91//33 56//33 55//34 
f 92//34 55//34 54//35 
f 93//35 54//35 53//36 
f 94//36 53//36 52//37 
f 95//37 52//37 51//38 
f 96//38 51//38 50//39 
f 97//39 50//39 49//40 
f 98//40 49//40 48//41 
f 99//41 48//41 47//42 
f 100//42 47//42 46//43 
f 101//43 46//43 45//44 
f 102//44 45//44 44//45 
f 103//45 44//45 43//46 
f 104//46 43//46 42//47 
f 105//47 42//47 41//48 
f 106//48 41//48 40//49 
f 107//49 40//49 39//50 
f 108//50 39//50 38//51 
f 109//51 38//51 37//52 
f 110//52 37//52 36//53 
f 111//53 36//53 35//54 
f 112//54 35//54 34//55 
f 113//55 34//55 33//56 
f 114//56 33//56 32//57 
f 115//57 32//57 31//58 
f 116//58 31//58 30//59 
f 117//59 30//59 29//2 
f 29//2 60//2 117//59 
f 30//59 117//59 116//58 
f 31//58 116//58 115//57 
f 32//57 115//57 114//56 
f 33//56 114//56 113//55 
f 34//55 113//55 112//54 
f 35//54 112//54 111//53 
f 36//53 111//53 110//52 
f 37//52 110//52 109//51 
f 38//51 109//51 108//50 
f 39//50 108//50 107//49 
f 40//49 107//49 106//48 
f 41//48 106//48 105//47 
f 42//47 105//47 104//46 
f 43//46 104//46 103//45 
f 44//45 103//45 102//44 
f 45//44 102//44 101//43 
f 46//43 101//43 100//42 
f 47//42 100//42 99//41 
f 48//41 99//41 98//40 
f 49//40 98//40 97//39 
f 50//39 97//39 96//38 
f 51//38 96//38 95//37 
f 52//37 95//37 94//36 
f 53//36 94//36 93//35 
f 54//35 93//35 92//34 
f 55//34 92//34 91//33 
f 56//33 91//33 90//32 
f 57//32 90//32 89//31 
f 58//31 89//31 88//30 
f 1//30 88//30 87//29 
f 2//29 87//29 86//28 
f 3//28 86//28 85//27 
f 4//27 85//27 84//26 
f 5//26 84//26 83//25 
f 6//25 83//25 82//24 
f 7//24 82//24 81//23 
f 8//23 81//23 80//22 
f 9//22 80//22 79//21 
f 10//21 79//21 78//20 
f 11//20 78//20 77//19 
f 12//19 77//19 76//18 
f 13//18 76//18 75//17 
f 14//17 75//17 74//16 
f 15//16 74//16 73//15 
f 16//15 73//15 72//14 
f 17//14 72//14 71//13 
f 18//13 71//13 70//12 
f 19//12 70//12 69//11 
f 20//11 69//11 68//10 
f 21//10 68//10 67//9 
f 22//9 67//9 66//8 
f 23//8 66//8 65//7 
f 24//7 65//7 64//6 
f 25//6 64//6 63//5 
f 26//5 63//5 62//4 
f 27//4 62//4 61//3 
f 28//3 61//3 60//2 
o mesh2
f 118//60 90//60 91//60 
f 91//60 92//60 118//60 
f 92//60 93//60 118//60 
f 93//60 94//60 118//60 
f 94//60 95//60 118//60 
f 95//60 96//60 118//60 
f 96//60 97//60 118//60 
f 97//60 98//60 118//60 
f 98//60 99//60 118//60 
f 99//60 100//60 118//60 
f 100//60 101//60 118//60 
f 101//60 102//60 118//60 
f 102//60 103//60 118//60 
f 103//60 104//60 118//60 
f 104//60 105//60 118//60 
f 105//60 106//60 118//60 
f 106//60 107//60 118//60 
f 107//60 108//60 118//60 
f 108//60 109//60 118//60 
f 109//60 110//60 118//60 
f 110//60 111//60 118//60 
f 111//60 112//60 118//60 
f 112//60 113//60 118//60 
f 113//60 114//60 118//60 
f 114//60 115//60 118//60 
f 115//60 116//60 118//60 
f 116//60 117//60 118//60 
f 117//60 60//60 118//60 
f 60//60 61//60 118//60 
f 61//60 62//60 118//60 
f 62//60 63//60 118//60 
f 63//60 64//60 118//60 
f 64//60 65//60 118//60 
f 65//60 66//60 118//60 
f 66//60 67//60 118//60 
f 67//60 68//60 118//60 
f 68//60 69//60 118//60 
f 69//60 70//60 118//60 
f 70//60 71//60 118//60 
f 71//60 72//60 118//60 
f 72//60 73//60 118//60 
f 73//60 74//60 118//60 
f 74//60 75//60 118//60 
f 75//60 76//60 118//60 
f 76//60 77//60 118//60 
f 77//60 78//60 118//60 
f 78//60 79//60 118//60 
f 79//60 80//60 118//60 
f 80//60 81//60 118//60 
f 81//60 82//60 118//60 
f 82//60 83//60 118//60 
f 83//60 84//60 118//60 
f 84//60 85//60 118//60 
f 85//60 86//60 118//60 
f 86//60 87//60 118//60 
f 87//60 88//60 118//60 
f 88//60 89//60 118//60 
f 89//60 90//60 118//60 
