# Blender 3.5.1
# www.blender.org
mtllib court_with_texture.mtl
o mesh0
v 7.500000 7.500000 -0.500000
v 0.000000 7.500000 -0.500000
v 0.000000 7.500000 5.000000
v -7.500000 7.500000 5.000000
v -7.500000 7.500000 -0.500000
v 7.500000 7.500000 5.000000
vn -0.0000 1.0000 -0.0000
s 0
usemtl 0.858824_0.858824_0.858824_0.000000_0.901961
f 1//1 2//1 3//1
f 4//1 3//1 2//1
f 2//1 5//1 4//1
f 3//1 6//1 1//1
o mesh1
v 7.500000 7.500000 -0.500000
v 7.500000 7.500000 5.000000
v 7.500000 -7.500000 -0.500000
v 7.500000 0.000000 -0.500000
v 7.500000 0.000000 5.000000
v 7.500000 -7.500000 5.000000
vn 1.0000 -0.0000 -0.0000
s 0
usemtl 0.858824_0.858824_0.858824_0.000000_0.901961
f 9//2 10//2 11//2
f 8//2 11//2 10//2
f 10//2 7//2 8//2
f 11//2 12//2 9//2
o mesh10
v -7.000000 0.000000 0.000000
v -7.000000 -7.000000 0.000000
v -7.000000 7.000000 0.000000
v 0.000000 -7.000000 0.000000
v 7.000000 -7.000000 0.000000
v 7.000000 0.000000 0.000000
v 7.000000 7.000000 0.000000
v 0.000000 7.000000 0.000000
vn -0.0000 -0.0000 1.0000
s 0
usemtl 0.858824_0.858824_0.858824_0.000000_0.901961
f 18//3 13//3 16//3
f 13//3 18//3 20//3
f 13//3 14//3 16//3
f 18//3 19//3 20//3
f 20//3 15//3 13//3
f 16//3 17//3 18//3
o mesh2
v 7.500000 -7.500000 -0.500000
v 7.500000 -7.500000 5.000000
v -7.500000 -7.500000 -0.500000
v 0.000000 -7.500000 -0.500000
v 0.000000 -7.500000 5.000000
v -7.500000 -7.500000 5.000000
vn -0.0000 -1.0000 -0.0000
s 0
usemtl 0.858824_0.858824_0.858824_0.000000_0.901961
f 23//4 24//4 25//4
f 22//4 25//4 24//4
f 24//4 21//4 22//4
f 25//4 26//4 23//4
o mesh3
v -7.500000 7.500000 5.000000
v -7.500000 7.500000 -0.500000
v -7.500000 -7.500000 -0.500000
v -7.500000 -7.500000 5.000000
v -7.500000 0.000000 -0.500000
v -7.500000 0.000000 5.000000
vn -1.0000 -0.0000 -0.0000
s 0
usemtl 0.858824_0.858824_0.858824_0.000000_0.901961
f 28//5 31//5 32//5
f 30//5 32//5 31//5
f 31//5 29//5 30//5
f 32//5 27//5 28//5
o mesh4
v 7.500000 7.500000 -0.500000
v 0.000000 7.500000 -0.500000
v -7.500000 7.500000 -0.500000
v 7.500000 -7.500000 -0.500000
v 7.500000 0.000000 -0.500000
v -7.500000 -7.500000 -0.500000
v 0.000000 -7.500000 -0.500000
v -7.500000 0.000000 -0.500000
vn -0.0000 -0.0000 -1.0000
s 0
usemtl 0.858824_0.858824_0.858824_0.000000_0.901961
f 39//6 34//6 37//6
f 34//6 39//6 40//6
f 34//6 33//6 37//6
f 39//6 38//6 40//6
f 40//6 35//6 34//6
f 37//6 36//6 39//6
o mesh5
v 0.000000 7.500000 5.000000
v -7.500000 7.500000 5.000000
v 7.500000 7.500000 5.000000
v 7.500000 0.000000 5.000000
v 7.500000 -7.500000 5.000000
v 0.000000 -7.500000 5.000000
v -7.500000 -7.500000 5.000000
v -7.500000 0.000000 5.000000
v -7.000000 0.000000 5.000000
v -7.000000 7.000000 5.000000
v -7.000000 -7.000000 5.000000
v 7.000000 -7.000000 5.000000
v 0.000000 -7.000000 5.000000
v 7.000000 7.000000 5.000000
v 7.000000 0.000000 5.000000
v 0.000000 7.000000 5.000000
vn -0.0000 -0.0000 1.0000
s 0
usemtl 0.858824_0.858824_0.858824_0.000000_0.901961
f 48//7 49//7 50//7
f 48//7 47//7 51//7
f 46//7 45//7 52//7
f 46//7 53//7 51//7
f 51//7 49//7 48//7
f 51//7 47//7 46//7
f 44//7 43//7 54//7
f 44//7 55//7 52//7
f 41//7 56//7 54//7
f 41//7 42//7 50//7
f 52//7 53//7 46//7
f 52//7 45//7 44//7
f 50//7 56//7 41//7
f 54//7 55//7 44//7
f 50//7 42//7 48//7
f 54//7 43//7 41//7
o mesh6
v -7.000000 0.000000 5.000000
v -7.000000 7.000000 5.000000
v -7.000000 -7.000000 5.000000
v -7.000000 0.000000 0.000000
v -7.000000 -7.000000 0.000000
v -7.000000 7.000000 0.000000
vn 1.0000 -0.0000 -0.0000
s 0
usemtl 0.858824_0.858824_0.858824_0.000000_0.901961
f 58//8 57//8 60//8
f 61//8 60//8 57//8
f 57//8 59//8 61//8
f 60//8 62//8 58//8
o mesh7
v -7.000000 -7.000000 5.000000
v 7.000000 -7.000000 5.000000
v 0.000000 -7.000000 5.000000
v -7.000000 -7.000000 0.000000
v 0.000000 -7.000000 0.000000
v 7.000000 -7.000000 0.000000
vn -0.0000 1.0000 -0.0000
s 0
usemtl 0.858824_0.858824_0.858824_0.000000_0.901961
f 63//9 65//9 67//9
f 68//9 67//9 65//9
f 65//9 64//9 68//9
f 67//9 66//9 63//9
o mesh8
v 7.000000 -7.000000 5.000000
v 7.000000 7.000000 5.000000
v 7.000000 0.000000 5.000000
v 7.000000 -7.000000 0.000000
v 7.000000 0.000000 0.000000
v 7.000000 7.000000 0.000000
vn -1.0000 -0.0000 -0.0000
s 0
usemtl 0.858824_0.858824_0.858824_0.000000_0.901961
f 69//10 71//10 73//10
f 74//10 73//10 71//10
f 71//10 70//10 74//10
f 73//10 72//10 69//10
o mesh9
v -7.000000 7.000000 5.000000
v 7.000000 7.000000 5.000000
v 0.000000 7.000000 5.000000
v -7.000000 7.000000 0.000000
v 7.000000 7.000000 0.000000
v 0.000000 7.000000 0.000000
vn -0.0000 -1.0000 -0.0000
s 0
usemtl 0.858824_0.858824_0.858824_0.000000_0.901961
f 76//11 77//11 80//11
f 78//11 80//11 77//11
f 77//11 75//11 78//11
f 80//11 79//11 76//11
